Episode 7
=========
While dealing with Nicola's death, Justin encounters the woman who knocked her down. Kane learns that Finn has been sending love letters to Lucy. Both Abi and Mark quit their jobs.

General
=======
Complete name : House.Husbands.S02E07.PDTV.x264-Juddsie.mp4
Format : MPEG-4
Format profile : Base Media
Codec ID : isom
File size : 321 MiB
Duration : 45mn 41s
Overall bit rate mode : Variable
Overall bit rate : 983 Kbps
Encoded date : UTC 2013-05-26 12:23:25
Tagged date : UTC 2013-05-26 12:23:25

Video
=====
ID : 1
Format : AVC
Format/Info : Advanced Video Codec
Format profile : High@L3.0
Format settings, CABAC : Yes
Format settings, ReFrames : 4 frames
Codec ID : avc1
Codec ID/Info : Advanced Video Coding
Duration : 45mn 41s
Bit rate : 848 Kbps
Maximum bit rate : 3 113 Kbps
Width : 720 pixels
Height : 400 pixels
Display aspect ratio : 16:9
Frame rate mode : Constant
Frame rate : 25.000 fps
Color space : YUV
Chroma subsampling : 4:2:0
Bit depth : 8 bits
Scan type : Progressive
Bits/(Pixel*Frame) : 0.118
Stream size : 278 MiB (87%)
Title : Video
Writing library : x264 core 128 r2216 198a7ea
Encoded date : UTC 2013-05-26 12:23:25
Tagged date : UTC 2013-05-26 12:23:28

Audio
=====
ID : 2
Format : AAC
Format/Info : Advanced Audio Codec
Format profile : LC
Codec ID : 40
Duration : 45mn 41s
Bit rate mode : Variable
Bit rate : 128 Kbps
Maximum bit rate : 135 Kbps
Channel(s) : 2 channels
Channel positions : Front: L R
Sampling rate : 48.0 KHz
Compression mode : Lossy
Stream size : 41.8 MiB (13%)
Language : English
Encoded date : UTC 2013-05-26 12:23:28
Tagged date : UTC 2013-05-26 12:23:28